<svg width="608" height="480" viewBox="0 0 608 480" fill="none" xmlns="http://www.w3.org/2000/svg">
<path d="M304 480C471.618 480 607.5 467.285 607.5 451.6C607.5 435.915 471.618 423.2 304 423.2C136.382 423.2 0.5 435.915 0.5 451.6C0.5 467.285 136.382 480 304 480Z" fill="#E5E5E5"/>
<path d="M424.5 416.9C433.4 416.9 440.6 409.7 440.6 400.8V376.2C440.6 367.3 433.4 360.1 424.5 360.1C415.6 360.1 408.4 367.3 408.4 376.2V400.8C408.4 409.7 415.6 416.9 424.5 416.9Z" stroke="#4D4D61" stroke-width="3" stroke-miterlimit="10" stroke-linecap="round" stroke-linejoin="round"/>
<path d="M424.5 416.9C433.4 416.9 440.6 409.7 440.6 400.8V376.2C440.6 367.3 433.4 360.1 424.5 360.1C415.6 360.1 408.4 367.3 408.4 376.2V400.8C408.4 409.7 415.6 416.9 424.5 416.9Z" fill="#4D4D61"/>
<path d="M412.9 406.6V382C412.9 373.1 420.1 365.9 429 365.9C432.9 365.9 436.4 367.3 439.2 369.5C436.7 363.9 431.1 360 424.5 360C415.6 360 408.4 367.2 408.4 376.1V400.7C408.4 405.8 410.7 410.3 414.4 413.2C413.4 411.3 412.9 409 412.9 406.6Z" fill="#56566D"/>
<path d="M424.3 366.6C429.215 366.6 433.2 365.167 433.2 363.4C433.2 361.633 429.215 360.2 424.3 360.2C419.385 360.2 415.4 361.633 415.4 363.4C415.4 365.167 419.385 366.6 424.3 366.6Z" fill="#4D4D61"/>
<path d="M424.5 363.4C427.8 363.4 430.5 360.7 430.5 357.4V329.7C430.5 326.9 428.2 324.6 425.4 324.6H423.7C420.9 324.6 418.6 326.9 418.6 329.7V357.4C418.5 360.7 421.2 363.4 424.5 363.4Z" fill="#4D4D61"/>
<path d="M424.5 363.4C427.8 363.4 430.5 360.7 430.5 357.4V329.6C430.5 326.8 428.3 324.6 425.5 324.6H423.6C420.8 324.6 418.6 326.8 418.6 329.6V357.4C418.5 360.7 421.2 363.4 424.5 363.4Z" stroke="#4D4D61" stroke-width="3" stroke-miterlimit="10" stroke-linecap="round" stroke-linejoin="round"/>
<path d="M298.5 118.4H281.4C278.2 118.4 275.6 115.8 275.6 112.6C275.6 109.4 278.2 106.8 281.4 106.8H288.6C294.3 106.8 298.9 102.2 298.9 96.5C298.9 90.8 294.3 86.2 288.6 86.2H266C265.1 86.2 264.3 85.4 264.3 84.5C264.3 83.6 265.1 82.8 266 82.8H268.5C269.5 82.8 270.3 82 270.3 81C270.3 80 269.5 79.2 268.5 79.2H250.8C249.6 79.2 248.6 80.2 248.6 81.4C248.6 82.6 249.6 83.6 250.8 83.6H257.7C259.7 83.6 261.4 85.3 261.4 87.3C261.4 89.3 259.7 91 257.7 91H254.4C249.7 91 245.8 94.8 245.8 99.6C245.8 104.4 249.6 108.2 254.4 108.2H261.4C263 108.2 264.3 109.5 264.3 111.1C264.3 112.7 263 114 261.4 114H258.7C255.6 114 253.1 116.5 253.1 119.6C253.1 122.7 255.6 125.2 258.7 125.2H295.2C297.2 125.2 298.9 126.9 298.8 128.9L298.7 131.7H306V125.9C305.8 121.7 302.5 118.4 298.5 118.4ZM274.8 96.7C274.8 95.8 275.5 95 276.5 95H286.4C287.3 95 288.1 95.7 288.1 96.7C288.1 97.6 287.4 98.4 286.4 98.4H276.5C275.5 98.3 274.8 97.6 274.8 96.7Z" fill="#E5E5E5"/>
<path d="M245.5 78.8H242.5C241.4 78.8 240.5 77.9 240.5 76.8C240.5 75.7 241.4 74.8 242.5 74.8H245.5C246.6 74.8 247.5 75.7 247.5 76.8C247.5 77.9 246.6 78.8 245.5 78.8Z" fill="#E5E5E5"/>
<path d="M486.2 303.9L482 297C481.1 295.5 481.6 293.5 483.1 292.5C484.6 291.6 486.6 292.1 487.6 293.6L491.8 300.5C492.7 302 492.2 304 490.7 305C489.1 306 487.1 305.5 486.2 303.9Z" fill="#4D4D61"/>
<path d="M494.2 301.3L487.4 297C485.9 296 485.4 294 486.4 292.5C487.4 291 489.4 290.5 490.9 291.5L497.7 295.8C499.2 296.8 499.7 298.8 498.7 300.3C497.8 301.8 495.8 302.2 494.2 301.3Z" fill="#4D4D61"/>
<path d="M499.7 295.9L491.7 294.8C489.9 294.6 488.7 292.9 488.9 291.1C489.1 289.3 490.8 288.1 492.6 288.3L500.6 289.4C502.4 289.6 503.6 291.3 503.4 293.1C503.1 294.9 501.5 296.1 499.7 295.9Z" fill="#4D4D61"/>
<path d="M502.5 289.3L494.5 290.4C492.7 290.7 491.1 289.4 490.8 287.6C490.5 285.8 491.8 284.2 493.6 283.9L501.6 282.8C503.4 282.5 505 283.8 505.3 285.6C505.5 287.4 504.3 289 502.5 289.3Z" fill="#4D4D61"/>
<path d="M503.7 282.5L496 284.9C494.3 285.4 492.5 284.5 491.9 282.7C491.4 281 492.3 279.2 494.1 278.6L501.8 276.2C503.5 275.7 505.3 276.6 505.9 278.4C506.3 280.2 505.4 282 503.7 282.5Z" fill="#4D4D61"/>
<path d="M503.9 275.5L496.4 278.4C494.7 279 492.8 278.2 492.2 276.5C491.6 274.8 492.4 272.9 494.1 272.3L501.6 269.4C503.3 268.8 505.2 269.6 505.8 271.3C506.4 273 505.6 274.8 503.9 275.5Z" fill="#4D4D61"/>
<path d="M503.7 268.5L496.5 272.2C494.9 273 492.9 272.4 492.1 270.8C491.3 269.2 491.9 267.2 493.5 266.4L500.7 262.7C502.3 261.9 504.3 262.5 505.1 264.1C505.9 265.7 505.3 267.7 503.7 268.5Z" fill="#4D4D61"/>
<path d="M503.1 263.8L495.9 267.5C494.3 268.3 492.3 267.7 491.5 266.1C490.7 264.5 491.3 262.5 492.9 261.7L500.1 258C501.7 257.2 503.7 257.8 504.5 259.4C505.3 261 504.7 263 503.1 263.8Z" fill="#4D4D61"/>
<path d="M311.1 137.8C303.8 137.8 297.9 143.7 297.9 151C297.9 158.3 303.8 164.2 311.1 164.2C318.4 164.2 324.3 158.3 324.3 151C324.3 143.7 318.4 137.8 311.1 137.8ZM311.1 159.1C306.7 159.1 303.1 155.5 303.1 151.1C303.1 146.7 306.7 143.1 311.1 143.1C315.5 143.1 319.1 146.7 319.1 151.1C319.1 155.5 315.5 159.1 311.1 159.1Z" stroke="#4D4D61" stroke-width="3" stroke-miterlimit="10" stroke-linecap="round" stroke-linejoin="round"/>
<path d="M322 144.1H320.6H310.6C307.6 144.1 305.6 147.3 307.1 150C309.2 154 313.5 156.8 318.4 156.8H319.7V171.8H333.4V155.4C333.3 149.2 328.2 144.1 322 144.1Z" fill="#F7E3CB"/>
<path d="M322 144.1H320.6H316.3C322.6 144.1 327.7 149.2 327.7 155.5V171.9H333.4V155.5C333.3 149.2 328.2 144.1 322 144.1Z" fill="#EDD6BC"/>
<path d="M322 144.1H320.6H309.1C307 144.1 305.6 146.1 306.2 148C307.9 153.1 312.7 156.8 318.3 156.8H319.6V171.8H333.3V155.4C333.3 149.2 328.2 144.1 322 144.1Z" stroke="#4D4D61" stroke-width="3" stroke-miterlimit="10" stroke-linecap="round" stroke-linejoin="round"/>
<path d="M283.5 169.9H302.7C306.9 169.9 310.4 166.5 310.4 162.2V132.3H275.8V162.2C275.8 166.4 279.2 169.9 283.5 169.9Z" fill="#FFD680"/>
<path d="M275.8 159.1H280.3C286.5 159.1 291.4 154.1 291.4 148V143.7L293.7 145.5" stroke="#4D4D61" stroke-width="2" stroke-miterlimit="10" stroke-linecap="round" stroke-linejoin="round"/>
<path d="M300.3 132.2V162.1C300.3 166.3 296.9 169.8 292.6 169.8H302.6C306.8 169.8 310.3 166.4 310.3 162.1V132.2H300.3Z" fill="#EABD6C"/>
<path d="M283.5 169.9H302.7C306.9 169.9 310.4 166.5 310.4 162.2V132.3H275.8V162.2C275.8 166.4 279.2 169.9 283.5 169.9Z" stroke="#4D4D61" stroke-width="3" stroke-miterlimit="10" stroke-linecap="round" stroke-linejoin="round"/>
<path d="M368.7 172.9L373.7 183.2L381.1 178.1L368.7 172.9Z" fill="#CA4361"/>
<path d="M368.7 172.9L373.7 183.2L381.1 178.1L368.7 172.9Z" stroke="#4D4D61" stroke-width="2" stroke-miterlimit="10" stroke-linecap="round" stroke-linejoin="round"/>
<path d="M385.693 408.019L399.37 399.525L342.336 307.694L328.659 316.189L385.693 408.019Z" fill="#F7E3CB"/>
<path d="M385.693 408.019L399.37 399.525L342.336 307.694L328.659 316.189L385.693 408.019Z" stroke="#4D4D61" stroke-width="3" stroke-miterlimit="10" stroke-linecap="round" stroke-linejoin="round"/>
<path d="M179.6 381L285.5 295.8L295.7 308.1L189.8 393.4L179.6 381Z" fill="#F7E3CB"/>
<path d="M191.2 371.7L200.9 384.5L210.5 377L200.8 363.9L191.2 371.7Z" fill="#EDD6BC"/>
<path d="M179.6 381L285.5 295.8L295.7 308.1L189.8 393.4L179.6 381Z" stroke="#4D4D61" stroke-width="3" stroke-miterlimit="10" stroke-linecap="round" stroke-linejoin="round"/>
<path d="M407.5 172.9L399.9 164.1C396.7 160.4 391.1 160 387.4 163.1C383.6 166.3 383.2 172 386.4 175.7L394 184.5C406 198.4 404.5 219.5 390.5 231.5C376.6 243.5 355.5 242 343.5 228C338.3 221.9 335.4 214.2 335.4 206.2V170H317.6V206.3C317.6 218.6 322 230.4 330 239.7C348.5 261.1 380.8 263.5 402.2 245C423.6 226.7 425.9 194.3 407.5 172.9Z" stroke="#4D4D61" stroke-width="3" stroke-miterlimit="10" stroke-linecap="round" stroke-linejoin="round"/>
<path d="M378.8 178.1C378.8 178.1 390.3 189.6 397.7 200C405 210.3 410.4 224 410.4 226.7C414.6 229.4 415.7 230.9 416.4 230.2C417.1 229.5 417.1 225.5 417.1 222C417.1 218.4 384.6 174.2 378.8 178.1Z" fill="#CA4361"/>
<path d="M378.8 178.1C378.8 178.1 390.3 189.6 397.7 200C405 210.3 410.4 224 410.4 226.7C414.6 229.4 415.7 230.9 416.4 230.2C417.1 229.5 417.1 225.5 417.1 222C417.1 218.4 384.6 174.2 378.8 178.1Z" stroke="#4D4D61" stroke-width="2" stroke-miterlimit="10" stroke-linecap="round" stroke-linejoin="round"/>
<path d="M413.8 410.3L335.7 434C334.3 434.4 332.8 433.6 332.3 432.2L332.2 432C331.8 430.6 332.6 429.1 334 428.6L412.1 404.9C413.5 404.5 415 405.3 415.5 406.7L415.6 406.9C416 408.4 415.2 409.9 413.8 410.3Z" fill="#595D5C"/>
<path d="M413.8 410.3L335.7 434C334.3 434.4 332.8 433.6 332.3 432.2L332.2 432C331.8 430.6 332.6 429.1 334 428.6L412.1 404.9C413.5 404.5 415 405.3 415.5 406.7L415.6 406.9C416 408.4 415.2 409.9 413.8 410.3Z" stroke="#4D4D61" stroke-width="3" stroke-miterlimit="10" stroke-linecap="round" stroke-linejoin="round"/>
<path d="M401.3 390.2L401 390.3C399.3 393.3 395.7 396 391.1 397.4C387.7 398.4 384.3 398.6 381.5 397.9C379 397.3 376.4 397.2 373.9 397.9L343.1 406.5C339.4 407.5 336.5 410.3 335 414.2L331.7 422.8C330.6 425.7 333.1 429 335.8 428.2L411.4 405.2L408.2 394.8C407.2 391.5 404.1 389.5 401.3 390.2Z" fill="#9B8462"/>
<path d="M335 414.3L334.5 415.7C337.1 417.7 340.6 418.5 344.1 417.5L391.3 403.1C395.8 401.7 398.6 397.7 398.7 393.2C396.8 395 394.2 396.5 391.2 397.4C387.8 398.4 384.4 398.6 381.6 397.9C379.1 397.3 376.5 397.2 374 397.9L343.2 406.5C339.4 407.5 336.5 410.3 335 414.3Z" fill="#E1C885"/>
<path d="M401.3 390.2L401 390.3C399.3 393.3 395.7 396 391.1 397.4C387.7 398.4 384.3 398.6 381.5 397.9C379 397.3 376.4 397.2 373.9 397.9L343.1 406.5C339.4 407.5 336.5 410.3 335 414.2L331.7 422.8C330.6 425.7 333.1 429 335.8 428.2L411.4 405.2L408.2 394.8C407.2 391.5 404.1 389.5 401.3 390.2Z" stroke="#4D4D61" stroke-width="3" stroke-miterlimit="10" stroke-linecap="round" stroke-linejoin="round"/>
<path d="M373.9 406.9L379.2 397.5L375.2 397.6L373.9 406.9Z" stroke="#4D4D61" stroke-width="3" stroke-miterlimit="10" stroke-linecap="round" stroke-linejoin="round"/>
<path d="M359 152.2C401.6 178.8 430.9 221.7 440.7 270.3H454.5C446.7 220.7 418.6 176.5 376.7 148.3" fill="#F7E3CB"/>
<path d="M442.1 322.1L453.2 314.9H397.1L408.2 322.1C418.6 328.8 431.8 328.8 442.1 322.1Z" stroke="#4D4D61" stroke-width="3" stroke-miterlimit="10" stroke-linecap="round" stroke-linejoin="round"/>
<path d="M442.1 322.1L453.2 314.9H397.1L408.2 322.1C418.6 328.8 431.8 328.8 442.1 322.1Z" fill="#4D4D61"/>
<path d="M373.5 149.8C385 145 393.2 133.6 393.2 120.3V109.5H395.4C403 109.5 409.2 103.3 409.2 95.7001C409.2 88.1001 403.9 81.0001 396.2 81.0001L392.5 81.3L393.1 64.3C393.1 46.6 378.8 32.3 361.1 32.3C343.4 32.3 329.1 46.6 329.1 64.3V81.8H319.6C316.7 81.8 314.3 84.2001 314.3 87.1001C314.3 94.9001 320.6 101.3 328.5 101.3H329.2V120.3C329.2 137.2 342.4 151.1 359 152.2" fill="#F7E3CB"/>
<path d="M475.4 295.6H367.5C367.1 295.6 366.8 295.6 366.4 295.7C358.1 296.3 351.6 303.6 352.2 312.2C352.7 319.9 359.1 326.2 366.9 326.6C370 326.7 372.9 326 375.3 324.6C385.5 318.7 396.9 315.1 408.8 315.1H475.4C480.7 315.1 485 310.8 485 305.5C485.1 300 480.7 295.6 475.4 295.6Z" fill="#CA4361"/>
<path d="M368.8 317.5C368.2 308.9 374.7 301.7 383 301C383.3 301 383.7 300.9 384.1 300.9H484.1C482.5 297.7 479.3 295.6 475.5 295.6H367.5C367.1 295.6 366.8 295.6 366.4 295.7C358.1 296.3 351.6 303.6 352.2 312.2C352.7 319.9 359.1 326.2 366.9 326.6C368.7 326.7 370.4 326.5 372 326C370.2 323.5 369 320.6 368.8 317.5Z" fill="#D35375"/>
<path d="M475.4 295.6H367.5C367.1 295.6 366.8 295.6 366.4 295.7C358.1 296.3 351.6 303.6 352.2 312.2C352.7 319.9 359.1 326.2 366.9 326.6C370 326.7 372.9 326 375.3 324.6C385.5 318.7 396.9 315.1 408.8 315.1H475.4C480.7 315.1 485 310.8 485 305.5C485.1 300 480.7 295.6 475.4 295.6Z" stroke="#4D4D61" stroke-width="3" stroke-miterlimit="10" stroke-linecap="round" stroke-linejoin="round"/>
<path d="M462.98 425.483L465.705 418.604L435.955 406.821L433.23 413.701L462.98 425.483Z" fill="#4D4D61"/>
<path d="M388.8 425.4L386.1 418.6L412.4 408.2C414.3 407.5 416.4 408.4 417.2 410.3C417.9 412.2 417 414.3 415.1 415.1L388.8 425.4Z" fill="#4D4D61"/>
<path d="M408.8 98.5L404.2 123.1C402.3 133 393.2 139.8 383.2 138.6H383.1L394.9 88.9L408.8 98.5Z" fill="#A3886C"/>
<path d="M408.8 98.5L404.2 123.1C402.3 133 393.2 139.8 383.2 138.6H383.1L394.9 88.9L408.8 98.5Z" stroke="#4D4D61" stroke-width="3" stroke-miterlimit="10" stroke-linecap="round" stroke-linejoin="round"/>
<path d="M329.1 103V100.7C329.1 97.5 326.3 95.1 323.2 95.7L319.5 97L329.1 103Z" fill="#EDD6BC"/>
<path d="M394.9 81.8H393.1V64.7C385.4 76.6 373.4 92.3 373.4 92.3V112.7V113.8C373.4 129.5 360.7 142.2 345 142.2H337.7C343.5 148.4 351.8 152.3 361 152.3C378.7 152.3 393 138 393 120.3V109.5H395.2C403.1 109.5 409.4 102.9 409 95C408.8 87.5 402.3 81.8 394.9 81.8Z" fill="#EDD6BC"/>
<path d="M376.7 148.3C386.5 142.8 393.2 132.4 393.2 120.3V109.5H395.4C403 109.5 409.2 103.3 409.2 95.7001C409.2 88.1001 403.9 81.0001 396.2 81.0001L392.5 81.3L393.1 64.3C393.1 46.6 378.8 32.3 361.1 32.3C343.4 32.3 329.1 46.6 329.1 64.3V81.8H319.6C316.7 81.8 314.3 84.2001 314.3 87.1001C314.3 94.9001 320.6 101.3 328.5 101.3H329.2V120.3C329.2 137.2 342.4 151.1 359 152.2" stroke="#4D4D61" stroke-width="3" stroke-miterlimit="10" stroke-linecap="round" stroke-linejoin="round"/>
<path d="M341.6 76.8C342.705 76.8 343.6 75.9046 343.6 74.8C343.6 73.6954 342.705 72.8 341.6 72.8C340.496 72.8 339.6 73.6954 339.6 74.8C339.6 75.9046 340.496 76.8 341.6 76.8Z" stroke="#4D4D61" stroke-width="2" stroke-miterlimit="10"/>
<path d="M360.5 95.2V111.4C360.5 121.7 352.1 130.1 341.8 130.1C334.8 130.1 329.2 124.4 329.2 117.5" stroke="#4D4D61" stroke-width="2" stroke-miterlimit="10" stroke-linecap="round" stroke-linejoin="round"/>
<path d="M358.7 94.3L362.3 96.2" stroke="#4D4D61" stroke-width="2" stroke-miterlimit="10" stroke-linecap="round" stroke-linejoin="round"/>
<path d="M345.7 56L342.1 63L356.2 71.6L357.1 65.6L345.7 56Z" fill="#B0977A"/>
<path d="M345.7 56L344.6 58.2C348.5 59.3 351.4 62.7 351.4 66.9C351.4 67.5 351.3 68.1 351.2 68.6L356.2 71.7L357.1 65.7L345.7 56Z" fill="#A3886C"/>
<path d="M345.7 56L342.1 63L356.2 71.6L357.1 65.6L345.7 56Z" stroke="#4D4D61" stroke-width="2" stroke-miterlimit="10" stroke-linecap="round" stroke-linejoin="round"/>
<path d="M414.4 46.7C417.8 48.8 419.3 49.4 422.6 49.4C416.9 41.4 415.5 25.7 407 15.8C403.2 11.3 398.9 6.39996 390.7 3.89996C376.6 -0.300044 363.3 4.39995 361.6 5.29995C351.3 10.8 341 23.4 344 34.2C344.3 35.4 343.3 36.2 344 37.1C355.3 28.5 373.1 31.1 381.5 42.7C388.2 51.9 386.4 66.9 379.9 75.5C378 77.4 377.2 83.8 374.4 90.2L381.9 85.6C389.6 80.9 401.2 82.3 407.6 88.7C408.7 90.6 409.4 92.6 409.7 94.6C410.5 94.1 411.5 93.5 412.7 92.5C420.1 86.3 421.4 76.9 421.7 74.5C423.9 60.3 416 48.5 414.4 46.7Z" fill="#B0977A"/>
<path d="M422.7 49.5C417 41.5 415.6 25.8 407.1 15.9C403.8 12 400.1 7.69998 393.7 5.09998C400.7 13.2 405 23.8 405 35.4C405 53.6 394.5 69.3 379.2 76.9C377.8 79.6 376.9 85 374.5 90.4L382 85.8C389.7 81.1 401.3 82.5 407.7 88.9C408.8 90.8 409.5 92.8 409.8 94.8C410.6 94.3 411.6 93.7 412.8 92.7C420.2 86.5 421.5 77.1 421.8 74.7C423.8 60.4 415.8 48.5 414.3 46.8C417.9 48.9 419.4 49.5 422.7 49.5Z" fill="#A3886C"/>
<path d="M414.4 46.7C417.8 48.8 419.3 49.4 422.6 49.4C416.9 41.4 415.5 25.7 407 15.8C403.2 11.3 398.9 6.39996 390.7 3.89996C376.6 -0.300044 363.3 4.39995 361.6 5.29995C351.3 10.8 341 23.4 344 34.2C344.3 35.4 343.3 36.2 344 37.1C355.3 28.5 373.1 31.1 381.5 42.7C388.2 51.9 386.4 66.9 379.9 75.5C378 77.4 377.2 83.8 374.4 90.2L385.7 83.4C393.2 78.8 403.1 81.1999 407.6 88.7999C408.7 90.6999 409.4 92.7 409.7 94.7C410.5 94.2 411.5 93.6 412.7 92.6C420.1 86.4 421.4 77 421.7 74.6C423.9 60.3 416 48.5 414.4 46.7Z" stroke="#4D4D61" stroke-width="3" stroke-miterlimit="10" stroke-linecap="round" stroke-linejoin="round"/>
<path d="M389 90.9L400.9 99.4" stroke="#4D4D61" stroke-width="2" stroke-miterlimit="10" stroke-linecap="round" stroke-linejoin="round"/>
<path d="M399.4 88.9L390.9 100.8" stroke="#4D4D61" stroke-width="2" stroke-miterlimit="10" stroke-linecap="round" stroke-linejoin="round"/>
<path d="M331.4 97.5L332.5 98.5C332.5 98.5 334.5 96.4 337.1 97.5C336.4 96.1 330.6 95.4 331.4 97.5Z" stroke="#4D4D61" stroke-width="2" stroke-miterlimit="10" stroke-linecap="round" stroke-linejoin="round"/>
<path d="M359 152.2C401.6 178.8 430.9 221.7 440.7 270.3H454.5C446.7 220.7 418.6 176.5 376.7 148.3" stroke="#4D4D61" stroke-width="3" stroke-miterlimit="10" stroke-linecap="round" stroke-linejoin="round"/>
<path d="M308.662 292.344L369.928 390.971L390.401 378.253L329.135 279.627L308.662 292.344Z" fill="#475C80"/>
<path opacity="0.57" d="M320.8 312.6L364.9 382.9C367.7 381.1 376.2 385 374.4 382.2L334.1 321.9C332.3 319.1 324.6 311.8 321.7 313.6L320.8 312.6Z" fill="#6987AF"/>
<path d="M318.9 308.8C318.9 308.8 337.8 302.9 344.3 304.1C337.7 291.4 335.3 288.9 335.3 288.9L310 297.1L318.9 308.8Z" fill="#4D4D61"/>
<path d="M308.662 292.344L369.928 390.971L390.401 378.253L329.135 279.627L308.662 292.344Z" stroke="#4D4D61" stroke-width="3" stroke-miterlimit="10" stroke-linecap="round" stroke-linejoin="round"/>
<path d="M272.1 300.2L195 363.8L210.3 382.4L280.7 324.3C303.3 305.6 331.8 295.4 361.1 295.4H448.4C455 295.4 460.4 290 460.4 283.4V271.4H352.4C323.1 271.3 294.7 281.5 272.1 300.2Z" fill="#475C80"/>
<path opacity="0.57" d="M199.8 359.8L206.6 369.3L287.1 297.2L283 292.1C279.2 294.6 275.6 297.3 272.1 300.2L199.8 359.8Z" fill="#6987AF"/>
<path opacity="0.57" d="M335 277.5L425.1 278.7C429.8 278.7 445.6 275.9 445.6 271.2H352.6C343 271.2 312.8 275.9 301.7 281.9C298.8 283.5 321.5 277.5 335 277.5Z" fill="#6987AF"/>
<path d="M272.1 300.2L195 363.8L210.3 382.4L280.7 324.3C303.3 305.6 331.8 295.4 361.1 295.4H448.4C455 295.4 460.4 290 460.4 283.4V271.4H352.4C323.1 271.3 294.7 281.5 272.1 300.2Z" stroke="#4D4D61" stroke-width="3" stroke-miterlimit="10" stroke-linecap="round" stroke-linejoin="round"/>
<path d="M460.5 270.3C453.6 225.3 430.3 184.2 395.6 155.1L373.7 170.3C404.8 195.7 426.3 231.1 434.5 270.3H460.5Z" fill="#E5E5E5"/>
<path d="M434.5 270.3H445.5C437 228.9 414.6 191.4 382.3 164.3L373.7 170.3C404.8 195.6 426.3 231.1 434.5 270.3Z" fill="white"/>
<path d="M460.5 270.3C453.6 225.3 430.3 184.2 395.6 155.1L373.7 170.3C404.8 195.7 426.3 231.1 434.5 270.3H460.5Z" stroke="#4D4D61" stroke-width="3" stroke-miterlimit="10" stroke-linecap="round" stroke-linejoin="round"/>
<path d="M300.7 200.9C300.7 200.9 292.4 207.8 293.1 193.6C293.4 187.1 301.9 187.3 301.9 187.3L302.8 193.4L300.7 200.9Z" fill="#B0977A"/>
<path d="M300.7 200.9C300.7 200.9 292.4 207.8 293.1 193.6C293.4 187.1 301.9 187.3 301.9 187.3L302.8 193.4L300.7 200.9Z" stroke="#4D4D61" stroke-width="3" stroke-miterlimit="10" stroke-linecap="round" stroke-linejoin="round"/>
<path d="M325.2 185.5C321.2 191.1 315 194.7 308.1 195.4C302.9 195.9 303 183.9 294.9 198.1C291.7 199.8 287.9 196.4 286.2 194.4C285.7 193.8 285.7 192.9 286.3 192.4C287.8 191.1 290.6 188 291.9 182.6C292.8 177.4 294.5 173.6 298.6 175.8C302.2 177.7 324.6 175 325.2 185.5Z" fill="#EDD6BC"/>
<path d="M325.2 185.5C321.2 191.1 315 194.7 308.1 195.4C302.9 195.9 303 183.9 294.9 198.1C291.7 199.8 288 196.4 286.2 194.5C285.6 193.9 285.7 192.9 286.3 192.4C287.9 191 290.6 188 291.8 182.6C292.7 177.4 294.4 173.6 298.5 175.8C302.2 177.7 324.6 175 325.2 185.5Z" stroke="#4D4D61" stroke-width="3" stroke-miterlimit="10" stroke-linecap="round" stroke-linejoin="round"/>
<path d="M328.1 197.3C328.1 197.3 325.2 188.9 317.4 184.9C316.6 188 312.6 191.1 308.7 192.2L310.9 196C312.6 199.1 311.2 203 307.9 204.1C305 205.1 301.9 203.7 300.7 200.9L295.8 186C295.8 186 305.4 182.5 308.3 179.5C310.3 177.5 315 170 315 170C315 170 323.7 172.1 329.6 178C334.5 182.9 338.9 191.2 338.9 191.2L328.1 197.3Z" fill="#EDD6BC"/>
<path d="M306.5 203.7L301.6 188.8C301.6 188.8 311.2 185.3 314.1 182.3C316.1 180.3 320.8 172.8 320.8 172.8C320.8 172.8 322.1 173.1 324.1 173.9C319.4 171.1 314.9 170 314.9 170C314.9 170 310.2 177.5 308.2 179.5C305.2 182.4 295.7 186 295.7 186L300.6 200.9C301.6 203.4 304.2 204.8 306.8 204.3C306.7 204.1 306.6 203.9 306.5 203.7Z" fill="#F7E3CB"/>
<path d="M323.2 187.7C323.1 188.1 322.9 188.5 322.7 188.9C326.5 192.9 328.1 197.3 328.1 197.3L331.5 195.4C329.8 192.8 327.1 189.7 323.2 187.7Z" fill="#F7E3CB"/>
<path d="M328.1 197.3C328.1 197.3 325.2 188.9 317.4 184.9C316.6 188 312.6 191.1 308.7 192.2L310.9 196C312.6 199.1 311.2 203 307.9 204.1C305 205.1 301.9 203.7 300.7 200.9L295.8 186C295.8 186 305.4 182.5 308.3 179.5C310.3 177.5 315 170 315 170C315 170 323.7 172.1 329.6 178C334.5 182.9 338.9 191.2 338.9 191.2L328.1 197.3Z" stroke="#4D4D61" stroke-width="3" stroke-miterlimit="10" stroke-linecap="round" stroke-linejoin="round"/>
<path d="M300.7 198.1L303.7 197.2C303.7 197.2 305.2 198.7 305.2 200.1C305.2 201.5 301.7 202.6 301.7 202.6C301.7 202.6 299.4 199.3 300.7 198.1Z" stroke="#4D4D61" stroke-width="2" stroke-miterlimit="10" stroke-linecap="round" stroke-linejoin="round"/>
<path d="M289 189.8L291.4 191.8C291.4 191.8 291 193.9 289.8 194.6C288.7 195.3 285.8 193.1 285.8 193.1C285.8 193.1 287.3 189.4 289 189.8Z" stroke="#4D4D61" stroke-width="2" stroke-miterlimit="10" stroke-linecap="round" stroke-linejoin="round"/>
<path d="M340.6 189L366.1 237.9C369.8 245 375.9 250.5 383.4 253.5C400.5 260.3 419.9 251.9 426.7 234.8C433.5 217.7 425.1 198.3 408 191.5L397.2 187.2C392.6 185.4 390.4 180.1 392.2 175.6C394 171.1 399.2 168.9 403.8 170.7L414.6 175C440.9 185.4 453.7 215.2 443.3 241.4C432.9 267.7 403.1 280.5 376.9 270.1C365.5 265.6 356.1 257.1 350.4 246.2L325.3 198.1L340.6 189Z" fill="#E5E5E5"/>
<path d="M347.5 202.2L340.6 189L325.2 198.1L332 211.1L347.5 202.2Z" fill="#E5E5E5"/>
<path d="M325.2 198.1L350.3 246.2C351.2 247.9 352.2 249.6 353.3 251.2C352.7 247.7 356.3 255.2 356.3 255.2L330.7 194.7L325.2 198.1Z" fill="white"/>
<path d="M347.5 202.2L340.6 189L325.2 198.1L332 211.1L347.5 202.2Z" stroke="#4D4D61" stroke-width="3" stroke-miterlimit="10" stroke-linecap="round" stroke-linejoin="round"/>
<path d="M393.5 181.3C395.3 176.8 400.5 174.6 405.1 176.4L415.9 180.7C431.3 186.8 442.1 199.6 446.3 214.5C443.5 197.3 432 181.9 414.7 175L403.9 170.7C399.3 168.9 394.2 171.1 392.3 175.6C391.2 178.3 391.5 181.3 393 183.6C393 182.8 393.2 182.1 393.5 181.3Z" fill="white"/>
<path d="M341.9 191.5L362.8 239.2C368.1 248.8 374.6 256.3 382 259.2C399.1 266 421 257.6 427.8 240.5C430.7 233.1 430.8 225.3 428.6 218.3C429.3 223.7 428.7 229.4 426.5 234.8C419.7 251.9 400.3 260.3 383.2 253.5C375.8 250.5 369.6 245 365.9 237.9L340.6 189" fill="white"/>
<path d="M340.6 189L366.1 237.9C369.8 245 375.9 250.5 383.4 253.5C400.5 260.3 419.9 251.9 426.7 234.8C433.5 217.7 425.1 198.3 408 191.5L397.2 187.2C392.6 185.4 390.4 180.1 392.2 175.6C394 171.1 399.2 168.9 403.8 170.7L414.6 175C440.9 185.4 453.7 215.2 443.3 241.4C432.9 267.7 403.1 280.5 376.9 270.1C365.5 265.6 356.1 257.1 350.4 246.2L325.3 198.1L340.6 189Z" stroke="#4D4D61" stroke-width="3" stroke-miterlimit="10" stroke-linecap="round" stroke-linejoin="round"/>
<path d="M396 152.3L379.9 180.2L361.7 168.2L388.6 149.3L396 152.3Z" fill="#E5E5E5"/>
<path d="M382.5 153.6L361.7 168.2L369.9 173.6C370 173.5 370.1 173.5 370.2 173.4C379.3 168.4 384.5 159.9 382.5 153.6Z" fill="white"/>
<path d="M396 152.3L379.9 180.2L361.7 168.2L388.6 149.3L396 152.3Z" stroke="#4D4D61" stroke-width="3" stroke-miterlimit="10" stroke-linecap="round" stroke-linejoin="round"/>
<path d="M373.8 445.4C384.625 445.4 393.4 436.625 393.4 425.8C393.4 414.975 384.625 406.2 373.8 406.2C362.975 406.2 354.2 414.975 354.2 425.8C354.2 436.625 362.975 445.4 373.8 445.4Z" fill="#56566D"/>
<path opacity="0.44" d="M362.5 435.6C362.5 424.8 371.3 416 382.1 416C385.7 416 389.1 417 392 418.7C389.1 411.4 382 406.2 373.7 406.2C362.9 406.2 354.1 415 354.1 425.8C354.1 433 358 439.3 363.8 442.7C363 440.5 362.5 438.1 362.5 435.6Z" fill="#66667C"/>
<path d="M373.8 445.4C384.625 445.4 393.4 436.625 393.4 425.8C393.4 414.975 384.625 406.2 373.8 406.2C362.975 406.2 354.2 414.975 354.2 425.8C354.2 436.625 362.975 445.4 373.8 445.4Z" stroke="#4D4D61" stroke-width="3" stroke-miterlimit="10" stroke-linecap="round" stroke-linejoin="round"/>
<path d="M373.8 435.5C379.157 435.5 383.5 431.157 383.5 425.8C383.5 420.443 379.157 416.1 373.8 416.1C368.443 416.1 364.1 420.443 364.1 425.8C364.1 431.157 368.443 435.5 373.8 435.5Z" stroke="#4D4D61" stroke-width="3" stroke-miterlimit="10" stroke-linecap="round" stroke-linejoin="round"/>
<path d="M373.8 435.5C379.157 435.5 383.5 431.157 383.5 425.8C383.5 420.443 379.157 416.1 373.8 416.1C368.443 416.1 364.1 420.443 364.1 425.8C364.1 431.157 368.443 435.5 373.8 435.5Z" fill="#4D4D61"/>
<path d="M396.6 416.1C393.3 416.1 390.3 414.7 388 412.3C384.4 408.5 379.4 406.2 373.8 406.2C368.3 406.2 363.4 408.4 359.8 412.1C357.3 414.6 354.1 416.1 350.6 416.1H350.5C354.3 407 363.3 400.6 373.8 400.6C384.3 400.6 393.3 407 397.1 416.1H396.6Z" fill="#CA4361"/>
<path d="M367.7 401.3C359.9 403.2 353.6 408.8 350.5 416.1H350.6C354 416.1 357.2 414.8 359.5 412.4C361.5 410.3 365.6 408.6 368.9 407.6C371.8 406.7 372 402.5 369.1 401.5C368.8 401.3 368.2 401.2 367.7 401.3Z" fill="#D35375"/>
<path d="M396.6 416.1C393.3 416.1 390.3 414.7 388 412.3C384.4 408.5 379.4 406.2 373.8 406.2C368.3 406.2 363.4 408.4 359.8 412.1C357.3 414.6 354.1 416.1 350.6 416.1H350.5C354.3 407 363.3 400.6 373.8 400.6C384.3 400.6 393.3 407 397.1 416.1H396.6Z" stroke="#4D4D61" stroke-width="3" stroke-miterlimit="10" stroke-linecap="round" stroke-linejoin="round"/>
<path d="M478.9 445.4C489.725 445.4 498.5 436.625 498.5 425.8C498.5 414.975 489.725 406.2 478.9 406.2C468.075 406.2 459.3 414.975 459.3 425.8C459.3 436.625 468.075 445.4 478.9 445.4Z" fill="#56566D"/>
<path opacity="0.44" d="M468.3 435.6C468.3 424.8 477.1 416 487.9 416C491.5 416 494.9 417 497.8 418.7C494.9 411.4 487.8 406.2 479.5 406.2C468.7 406.2 459.9 415 459.9 425.8C459.9 433 463.8 439.3 469.6 442.7C468.8 440.5 468.3 438.1 468.3 435.6Z" fill="#66667C"/>
<path d="M478.9 445.4C489.725 445.4 498.5 436.625 498.5 425.8C498.5 414.975 489.725 406.2 478.9 406.2C468.075 406.2 459.3 414.975 459.3 425.8C459.3 436.625 468.075 445.4 478.9 445.4Z" stroke="#4D4D61" stroke-width="3" stroke-miterlimit="10" stroke-linecap="round" stroke-linejoin="round"/>
<path d="M125.4 264.2H111.8V450.9H125.4V264.2Z" stroke="#4D4D61" stroke-width="3" stroke-miterlimit="10" stroke-linecap="round" stroke-linejoin="round"/>
<path d="M125.4 264.2H111.8V450.9H125.4V264.2Z" fill="#4D4D61"/>
<path d="M478.9 435.5C484.257 435.5 488.6 431.157 488.6 425.8C488.6 420.443 484.257 416.1 478.9 416.1C473.543 416.1 469.2 420.443 469.2 425.8C469.2 431.157 473.543 435.5 478.9 435.5Z" stroke="#4D4D61" stroke-width="3" stroke-miterlimit="10" stroke-linecap="round" stroke-linejoin="round"/>
<path d="M501.7 416.1C498.4 416.1 495.4 414.7 493.1 412.3C489.5 408.5 484.5 406.2 478.9 406.2C473.4 406.2 468.5 408.4 464.9 412.1C462.4 414.6 459.2 416.1 455.7 416.1H455.6C459.4 407 468.4 400.6 478.9 400.6C489.4 400.6 498.4 407 502.2 416.1H501.7Z" fill="#CA4361"/>
<path d="M478.9 435.5C484.257 435.5 488.6 431.157 488.6 425.8C488.6 420.443 484.257 416.1 478.9 416.1C473.543 416.1 469.2 420.443 469.2 425.8C469.2 431.157 473.543 435.5 478.9 435.5Z" fill="#4D4D61"/>
<path d="M501.7 416.1C498.4 416.1 495.4 414.7 493.1 412.3C489.5 408.5 484.5 406.2 478.9 406.2C473.4 406.2 468.5 408.4 464.9 412.1C462.4 414.6 459.2 416.1 455.7 416.1H455.6C459.4 407 468.4 400.6 478.9 400.6C489.4 400.6 498.4 407 502.2 416.1H501.7Z" stroke="#4D4D61" stroke-width="3" stroke-miterlimit="10" stroke-linecap="round" stroke-linejoin="round"/>
<path d="M341.8 245.6H48.1999C45.7999 245.6 43.8999 243.7 43.8999 241.3V233.2C43.8999 230.8 45.7999 228.9 48.1999 228.9H341.8C344.2 228.9 346.1 230.8 346.1 233.2V241.3C346.1 243.7 344.2 245.6 341.8 245.6Z" fill="#B98C78"/>
<path d="M155.9 238.1C113.2 238.1 74.8 241 48.5 245.6H263.4C237 241 198.6 238.1 155.9 238.1Z" fill="#C9A08F"/>
<path d="M341.8 245.6H48.1999C45.7999 245.6 43.8999 243.7 43.8999 241.3V233.2C43.8999 230.8 45.7999 228.9 48.1999 228.9H341.8C344.2 228.9 346.1 230.8 346.1 233.2V241.3C346.1 243.7 344.2 245.6 341.8 245.6Z" stroke="#4D4D61" stroke-width="3" stroke-miterlimit="10" stroke-linecap="round" stroke-linejoin="round"/>
<path d="M310.1 267H79.8001C73.9001 267 69.1001 262.2 69.1001 256.3C69.1001 250.4 73.9001 245.6 79.8001 245.6H310.1C316 245.6 320.8 250.4 320.8 256.3C320.8 262.2 316 267 310.1 267Z" stroke="#4D4D61" stroke-width="3" stroke-miterlimit="10" stroke-linecap="round" stroke-linejoin="round"/>
<path d="M310.1 267H79.8001C73.9001 267 69.1001 262.2 69.1001 256.3C69.1001 250.4 73.9001 245.6 79.8001 245.6H310.1C316 245.6 320.8 250.4 320.8 256.3C320.8 262.2 316 267 310.1 267Z" fill="#4D4D61"/>
<path d="M165 262C132.1 262 103.9 264.1 91.5 267H238.5C226.1 264 197.9 262 165 262Z" fill="#575770"/>
<path d="M169.1 212.6C172.69 212.6 175.6 209.69 175.6 206.1C175.6 202.51 172.69 199.6 169.1 199.6C165.51 199.6 162.6 202.51 162.6 206.1C162.6 209.69 165.51 212.6 169.1 212.6Z" fill="#83ABBA"/>
<path d="M169.1 212.6C172.69 212.6 175.6 209.69 175.6 206.1C175.6 202.51 172.69 199.6 169.1 199.6C165.51 199.6 162.6 202.51 162.6 206.1C162.6 209.69 165.51 212.6 169.1 212.6Z" stroke="#4D4D61" stroke-width="3" stroke-miterlimit="10" stroke-linecap="round" stroke-linejoin="round"/>
<path d="M167.2 203.5L167.7 203.4L143.2 67.3L142.7 67.4C138 68.3 134.8 72.8 135.7 77.5L157.1 196.5C157.9 201.2 162.4 204.3 167.2 203.5Z" fill="#92B4C3"/>
<path d="M156.7 194.4C156.7 178.9 155.3 162.1 152.2 144.8C149 126.7 144.3 109.7 138.7 94.7L156.7 194.4Z" fill="#ACD3E5"/>
<path d="M167.2 203.5L167.7 203.4L143.2 67.3L142.7 67.4C138 68.3 134.8 72.8 135.7 77.5L157.1 196.5C157.9 201.2 162.4 204.3 167.2 203.5Z" stroke="#4D4D61" stroke-width="3" stroke-miterlimit="10" stroke-linecap="round" stroke-linejoin="round"/>
<path d="M285.2 265H271.6V451.7H285.2V265Z" stroke="#4D4D61" stroke-width="3" stroke-miterlimit="10" stroke-linecap="round" stroke-linejoin="round"/>
<path d="M285.2 265H271.6V451.7H285.2V265Z" fill="#4D4D61"/>
<path d="M181.7 221.9H306.7C312.8 221.9 317.8 216.9 317.8 210.8V206.1H170.6V210.8C170.6 216.9 175.6 221.9 181.7 221.9Z" fill="#92B4C3"/>
<path d="M306.7 218.4H181.7C175.6 218.4 170.6 213.4 170.6 207.3V210.8C170.6 216.9 175.6 221.9 181.7 221.9H306.7C312.8 221.9 317.8 216.9 317.8 210.8V207.3C317.8 213.4 312.8 218.4 306.7 218.4Z" fill="#83ABBA"/>
<path d="M181.7 221.9H306.7C312.8 221.9 317.8 216.9 317.8 210.8V206.1H170.6V210.8C170.6 216.9 175.6 221.9 181.7 221.9Z" stroke="#4D4D61" stroke-width="3" stroke-miterlimit="10" stroke-linecap="round" stroke-linejoin="round"/>
<path d="M189.097 228.819L299.297 228.819L299.297 221.819L189.097 221.819L189.097 228.819Z" stroke="#4D4D61" stroke-width="3" stroke-miterlimit="10" stroke-linecap="round" stroke-linejoin="round"/>
<path d="M189.097 228.819L299.297 228.819L299.297 221.819L189.097 221.819L189.097 228.819Z" fill="#4D4D61"/>
<path d="M244.398 213.861L254.298 213.861L254.298 210.561L244.398 210.561L244.398 213.861Z" stroke="#4D4D61" stroke-width="2" stroke-miterlimit="10" stroke-linecap="round" stroke-linejoin="round"/>
<path d="M230.289 213.861L240.189 213.861L240.189 210.561L230.289 210.561L230.289 213.861Z" stroke="#4D4D61" stroke-width="2" stroke-miterlimit="10" stroke-linecap="round" stroke-linejoin="round"/>
<path d="M183.5 214C184.494 214 185.3 213.194 185.3 212.2C185.3 211.206 184.494 210.4 183.5 210.4C182.506 210.4 181.7 211.206 181.7 212.2C181.7 213.194 182.506 214 183.5 214Z" stroke="#4D4D61" stroke-width="2" stroke-miterlimit="10" stroke-linecap="round" stroke-linejoin="round"/>
<path d="M536 154.8C537.5 143.3 529.3 132.8 517.7 131.7C506.6 130.6 496.8 138.8 495.3 149.9L481.6 251.8C481 256.4 484.2 260.6 488.8 261.2L500.9 262.8C505.5 263.4 509.7 260.2 510.3 255.6L512.3 240.6C516 213.1 522.8 185.9 534.4 160.7C535.1 158.9 535.7 156.9 536 154.8Z" fill="#CA4361"/>
<path d="M508.2 240.6L506.2 255.6C505.7 259.1 503.1 261.9 499.8 262.6L500.9 262.7C505.5 263.3 509.7 260.1 510.3 255.5L512.3 240.5C516 213 522.8 185.8 534.4 160.6C535.2 158.8 535.8 156.8 536.1 154.8C537.6 143.3 529.4 132.8 517.8 131.7C516.5 131.6 515.1 131.6 513.9 131.7C525.5 132.9 533.7 143.4 532.2 154.8C531.9 156.9 531.3 158.8 530.5 160.6" fill="#D35375"/>
<path d="M495.3 149.9L484.7 228.9C493.9 202.6 502.8 174.3 502.8 152.3C502.8 137.4 520.9 132.4 525.9 137.4C522.6 131.3 512.1 130.7 506.4 134C500.2 137.5 495.9 145 495.3 149.9Z" fill="#D35375"/>
<path d="M536 154.8C537.5 143.3 529.3 132.8 517.7 131.7C506.6 130.6 496.8 138.8 495.3 149.9L481.6 251.8C481 256.4 484.2 260.6 488.8 261.2L500.9 262.8C505.5 263.4 509.7 260.2 510.3 255.6L512.3 240.6C516 213.1 522.8 185.9 534.4 160.7C535.1 158.9 535.7 156.9 536 154.8Z" stroke="#4D4D61" stroke-width="3" stroke-miterlimit="10" stroke-linecap="round" stroke-linejoin="round"/>
<path d="M193 413.5L124.4 369.3C123.1 368.5 122.8 366.8 123.6 365.6L123.7 365.4C124.5 364.1 126.2 363.8 127.4 364.6L196 408.8C197.3 409.6 197.6 411.3 196.8 412.5L196.7 412.7C196 413.9 194.3 414.3 193 413.5Z" fill="#595D5C"/>
<path d="M193 413.5L124.4 369.3C123.1 368.5 122.8 366.8 123.6 365.6L123.7 365.4C124.5 364.1 126.2 363.8 127.4 364.6L196 408.8C197.3 409.6 197.6 411.3 196.8 412.5L196.7 412.7C196 413.9 194.3 414.3 193 413.5Z" stroke="#4D4D61" stroke-width="3" stroke-miterlimit="10" stroke-linecap="round" stroke-linejoin="round"/>
<path d="M200.3 391L200 390.8C196.6 391.4 192.2 390.4 188.2 387.8C185.2 385.9 182.9 383.3 181.6 380.8C180.4 378.5 178.8 376.4 176.7 375L150.2 357.1C147.1 355 143 354.6 139.1 355.9L130.5 358.9C127.6 359.9 126.7 364 129 365.5L195.4 408.3L201.3 399.1C203.1 396.2 202.7 392.6 200.3 391Z" fill="#9B8462"/>
<path opacity="0.74" d="M139.1 355.9L137.7 356.4C137.8 359.7 139.5 362.9 142.5 364.9L184 391.6C187.9 394.1 192.9 393.7 196.3 390.9C193.7 390.6 190.9 389.6 188.2 387.9C185.2 386 182.9 383.4 181.6 380.9C180.4 378.6 178.8 376.5 176.7 375.1L150.2 357.2C147.1 354.9 143 354.5 139.1 355.9Z" fill="#E1C885"/>
<path d="M200.3 391L200 390.8C196.6 391.4 192.2 390.4 188.2 387.8C185.2 385.9 182.9 383.3 181.6 380.8C180.4 378.5 178.8 376.4 176.7 375L150.2 357.1C147.1 355 143 354.6 139.1 355.9L130.5 358.9C127.6 359.9 126.7 364 129 365.5L195.4 408.3L201.3 399.1C203.1 396.2 202.7 392.6 200.3 391Z" stroke="#4D4D61" stroke-width="3" stroke-miterlimit="10" stroke-linecap="round" stroke-linejoin="round"/>
<path d="M169.9 380.8L180.4 378.8L177.7 375.8L169.9 380.8Z" stroke="#4D4D61" stroke-width="3" stroke-miterlimit="10" stroke-linecap="round" stroke-linejoin="round"/>
<path d="M198.7 352.9L190.4 361.1L210.7 386.6L220.7 378.3L198.7 352.9Z" fill="#92B4C3"/>
<path d="M198.1 353.5L190.4 361.1L201.4 374.9C203.2 372.3 204.3 369.2 204.3 365.9C204.3 360.9 201.9 356.4 198.1 353.5Z" fill="#9EC0CC"/>
<path d="M198.7 352.9L190.4 361.1L210.7 386.6L220.7 378.3L198.7 352.9Z" stroke="#4D4D61" stroke-width="3" stroke-miterlimit="10" stroke-linecap="round" stroke-linejoin="round"/>
<path d="M362.5 385.5L368.8 395.4L398 380.8L392 369.3L362.5 385.5Z" fill="#92B4C3"/>
<path d="M362.5 385.5L368.8 395.4L398 380.8L392 369.3L362.5 385.5Z" fill="#92B4C3"/>
<path d="M373.8 386.7C373.8 384.5 372.6 382.6 370.6 381L362.5 385.5L368 394.1C371.5 392.4 373.8 389.7 373.8 386.7Z" fill="#9EC0CC"/>
<path d="M362.5 385.5L368.8 395.4L398 380.8L392 369.3L362.5 385.5Z" stroke="#4D4D61" stroke-width="3" stroke-miterlimit="10" stroke-linecap="round" stroke-linejoin="round"/>
<path d="M281 147.2C281.442 147.2 281.8 146.618 281.8 145.9C281.8 145.182 281.442 144.6 281 144.6C280.558 144.6 280.2 145.182 280.2 145.9C280.2 146.618 280.558 147.2 281 147.2Z" stroke="#4D4D61" stroke-width="2" stroke-miterlimit="10" stroke-linecap="round" stroke-linejoin="round"/>
<path d="M198.7 217.1H193.7C192.4 217.1 191.3 216 191.3 214.7V211.7C191.3 210.4 192.4 209.3 193.7 209.3H198.7C200 209.3 201.1 210.4 201.1 211.7V214.7C201.1 216 200 217.1 198.7 217.1Z" fill="#4D4D61"/>
</svg>
